<svg viewBox="0 0 24 24" fill="currentColor" xmlns="http://www.w3.org/2000/svg">
  <path fill-rule="evenodd" clip-rule="evenodd"
    d="M6.29279 6.29357C6.48031 6.1061 6.73462 6.00078 6.99979 6.00078C7.26495 6.00078 7.51926 6.1061 7.70679 6.29357L11.9998 10.5866L16.2928 6.29357C16.385 6.19806 16.4954 6.12188 16.6174 6.06947C16.7394 6.01706 16.8706 5.98947 17.0034 5.98832C17.1362 5.98717 17.2678 6.01247 17.3907 6.06275C17.5136 6.11303 17.6253 6.18728 17.7192 6.28117C17.8131 6.37507 17.8873 6.48672 17.9376 6.60962C17.9879 6.73251 18.0132 6.86419 18.012 6.99697C18.0109 7.12975 17.9833 7.26097 17.9309 7.38297C17.8785 7.50498 17.8023 7.61532 17.7068 7.70757L13.4138 12.0006L17.7068 16.2936C17.8889 16.4822 17.9897 16.7348 17.9875 16.997C17.9852 17.2592 17.88 17.51 17.6946 17.6954C17.5092 17.8808 17.2584 17.986 16.9962 17.9882C16.734 17.9905 16.4814 17.8897 16.2928 17.7076L11.9998 13.4146L7.70679 17.7076C7.51818 17.8897 7.26558 17.9905 7.00339 17.9882C6.74119 17.986 6.49038 17.8808 6.30497 17.6954C6.11956 17.51 6.01439 17.2592 6.01211 16.997C6.00983 16.7348 6.11063 16.4822 6.29279 16.2936L10.5858 12.0006L6.29279 7.70757C6.10532 7.52004 6 7.26573 6 7.00057C6 6.73541 6.10532 6.4811 6.29279 6.29357Z" />
</svg>